<?xml version="1.0" encoding="UTF-8"?>
<svg version="1.1" xmlns="http://www.w3.org/2000/svg" width="319" height="450">
<path d="M0 0 C1.81219073 -0.00389295 3.62438055 -0.00822884 5.43656921 -0.01298523 C9.21628799 -0.02041109 12.99591327 -0.02018066 16.77563477 -0.01489258 C21.6154928 -0.00907311 26.45497121 -0.02610597 31.29476643 -0.04923725 C35.02913136 -0.06396666 38.76340436 -0.06484788 42.4977932 -0.06172752 C44.28275498 -0.06224016 46.06772198 -0.06746708 47.85265541 -0.07753944 C50.34383635 -0.08988451 52.83427037 -0.08312643 55.32543945 -0.0715332 C56.05851318 -0.07917694 56.79158691 -0.08682068 57.546875 -0.09469604 C61.9791606 -0.0491359 64.68909441 0.67230313 68.26171875 3.30078125 C68.83921875 3.71328125 69.41671875 4.12578125 70.01171875 4.55078125 C72.03469691 7.38295067 72.1435202 9.87302344 72.26171875 13.30078125 C70.65106772 17.03070995 68.73743575 19.23579952 65.26171875 21.30078125 C62.04780579 21.67932129 62.04780579 21.67932129 58.19262695 21.68554688 C57.13543457 21.69360603 57.13543457 21.69360603 56.05688477 21.701828 C54.52752227 21.71159972 52.99810437 21.71455196 51.46871376 21.71147156 C49.03130192 21.70697368 46.59460892 21.72105654 44.15727234 21.73986816 C38.96293312 21.77664454 33.76866883 21.79031972 28.57421875 21.80078125 C22.59348769 21.81294346 16.61310493 21.8350798 10.63252831 21.88078308 C8.26156858 21.89411477 5.8910767 21.89022282 3.52009583 21.88537598 C-4.07086901 21.91165935 -11.41193751 22.34905827 -18.90161133 23.63867188 C-19.58211139 23.7548159 -20.26261145 23.87095993 -20.96373272 23.99062347 C-35.82772306 26.81901847 -48.23914184 36.26742315 -56.67578125 48.61328125 C-65.87169282 64.26206965 -68.45331339 82.6620515 -64.11328125 100.23828125 C-59.57942603 115.10805816 -51.15048022 127.27814689 -37.73828125 135.30078125 C-36.9803125 135.76226562 -36.22234375 136.22375 -35.44140625 136.69921875 C-23.66281176 143.22092375 -10.67200524 144.89475971 2.54852676 144.75607109 C4.7781973 144.73365968 7.00655119 144.73806125 9.23629761 144.74855042 C14.75650848 144.76990724 20.27639628 144.75277608 25.79656982 144.72705078 C30.50297691 144.70560875 35.20852049 144.70371283 39.91491318 144.72996712 C42.10124821 144.73428943 44.28603791 144.70979739 46.47219849 144.68443298 C57.37080981 144.67189992 57.37080981 144.67189992 61.14013672 147.62133789 C63.82224217 151.00869202 64.33735737 152.98937985 64.26171875 157.30078125 C63.05139564 160.79727024 62.04410359 162.70702418 59.09068298 164.94839478 C55.57152604 166.6307279 53.0199968 166.68159088 49.12329102 166.68896484 C48.07328163 166.69685028 48.07328163 166.69685028 47.00205994 166.70489502 C44.69385245 166.71806601 42.38633924 166.70935905 40.078125 166.69921875 C38.45971038 166.70124237 36.84129665 166.7041562 35.22288513 166.70791626 C31.82761978 166.71233741 28.43259128 166.70592301 25.03735352 166.69189453 C20.72394114 166.67492572 16.41109395 166.68456612 12.09770298 166.70261192 C8.75068572 166.71356131 5.40379765 166.70995086 2.05677605 166.70222855 C0.46905384 166.70025072 -1.11868076 166.70259903 -2.70638847 166.70966721 C-11.80140171 166.7412351 -19.95802964 166.18024543 -28.79847717 163.84536743 C-34.17066645 162.85019225 -37.62429727 164.58417009 -42.23046875 167.2421875 C-43.26558594 167.82548828 -44.30070312 168.40878906 -45.3671875 169.00976562 C-47.52704966 170.24304432 -49.68333222 171.48261378 -51.8359375 172.72851562 C-61.89398006 178.36976558 -61.89398006 178.36976558 -67.73828125 177.30078125 C-70.67578125 175.17578125 -70.67578125 175.17578125 -72.73828125 172.30078125 C-73.82291326 165.32188638 -69.97447474 158.58840308 -67.40625 152.26757812 C-66.85517578 150.84348633 -66.85517578 150.84348633 -66.29296875 149.390625 C-65.94733887 148.53331787 -65.60170898 147.67601074 -65.24560547 146.79272461 C-64.60253407 143.63399996 -65.27415451 142.12586808 -66.73828125 139.30078125 C-68.23506639 137.37971988 -68.23506639 137.37971988 -69.98828125 135.61328125 C-85.22597749 118.60889559 -88.65890558 96.93832451 -87.890625 74.88867188 C-86.70572337 54.76053525 -76.78650662 36.3732277 -62.73828125 22.30078125 C-62.0525 21.60339844 -61.36671875 20.90601563 -60.66015625 20.1875 C-51.8679518 11.80234205 -40.45744516 5.49979626 -28.73828125 2.30078125 C-28.14064468 2.13446701 -27.54300812 1.96815277 -26.92726135 1.79679871 C-18.05452563 -0.3281969 -9.06425716 -0.00812936 0 0 Z " fill="#F8BC9B" transform="translate(157.73828125,130.69921875)"/>
<path d="M0 0 C8.22506468 8.74967017 13.87968219 20.17407295 17.33984375 31.57421875 C17.78650391 32.83105469 17.78650391 32.83105469 18.2421875 34.11328125 C24.60373769 54.45851551 19.94698594 75.94351144 10.63671875 94.45703125 C7.45776217 100.40430591 2.53383336 109.47722394 -3.66015625 112.57421875 C-10.65885247 113.2626151 -10.65885247 113.2626151 -14.66015625 110.51171875 C-16.66015625 107.57421875 -16.66015625 107.57421875 -17.47265625 104.44921875 C-16.42308987 99.44359448 -13.98144794 96.65876754 -10.89453125 92.65234375 C-0.51348797 78.35118622 2.88546721 62.30057561 1.05859375 44.89453125 C-0.94879132 32.81161728 -6.99090068 21.36882403 -14.59765625 11.88671875 C-16.66015625 8.57421875 -16.66015625 8.57421875 -16.72265625 4.88671875 C-15.57283027 1.30196715 -14.66076705 -0.19675608 -11.66015625 -2.42578125 C-7.3891697 -4.41890831 -3.47317959 -2.98284836 0 0 Z " fill="#F7D4C0" transform="translate(267.66015625,159.42578125)"/>
<path d="M0 0 C4.03043971 0.90337442 4.46365979 1.2944096 6.75 4.5 C17.14745887 22.15343953 20.00849488 44.0704703 15 63.9375 C14.26303869 66.24733987 13.47089661 68.54029157 12.625 70.8125 C12.27961182 71.76020264 12.27961182 71.76020264 11.92724609 72.72705078 C7.3796561 84.99730869 7.3796561 84.99730869 1.625 88.8125 C-0.9375 89.3125 -0.9375 89.3125 -3.375 88.8125 C-5.6875 87.25 -5.6875 87.25 -7.375 84.8125 C-7.86164845 79.36603723 -6.69025987 75.3359137 -4.5 70.4375 C-2.18586172 64.93814496 -0.18856824 59.74137852 0.625 53.8125 C0.769375 52.86503906 0.91375 51.91757813 1.0625 50.94140625 C2.59786767 37.87478765 0.04154151 26.27475813 -6.16796875 14.77734375 C-7.60979315 11.23577508 -7.69097718 8.60422618 -7.375 4.8125 C-5.23854028 1.47962283 -3.85064166 0.92700633 0 0 Z " fill="#F2C9B1" transform="translate(211.375,170.1875)"/>
<path d="M0 0 C0.928125 0.474375 1.85625 0.94875 2.8125 1.4375 C7.54215396 3.75595782 12.14058361 4.70886704 17.33203125 3.421875 C18.84970531 2.89443802 20.3617008 2.35034151 21.8671875 1.7890625 C25.00683078 0.62750949 27.643702 0 31 0 C34 2 34 2 36 5 C36.125 8.5625 36.125 8.5625 35 12 C29.47516949 17.84982054 21.68410818 19.93154346 13.875 20.25 C5.91540412 20.14369488 -1.80707882 18.08137123 -8 13 C-10.32749345 9.50875983 -10.50299316 8.10777749 -10 4 C-7.18264759 -0.11766891 -4.8495073 -0.67893102 0 0 Z " fill="#F7C2A3" transform="translate(158,237)"/>
<path d="M0 0 C5.23468735 4.18580751 6.0665343 9.62003198 7 16 C7.15843652 23.03644529 6.22504808 31.06634981 1.61328125 36.69140625 C0 38 0 38 -3.4375 38.4375 C-7 38 -7 38 -9.4375 36.4375 C-11.590908 33.07818353 -11.40700718 30.93440277 -11 27 C-10.649375 26.05125 -10.29875 25.1025 -9.9375 24.125 C-8.55270099 19.50900329 -8.81628224 14.36743553 -11 10 C-11.38503376 6.45768939 -11.41935959 4.63742658 -9.4375 1.625 C-6.06489221 -0.62340519 -3.97487617 -0.56783945 0 0 Z " fill="#F0CEBA" transform="translate(250,196)"/>
<path d="M0 0 C0.75171478 0.00247742 1.50342957 0.00495483 2.27792358 0.00750732 C3.46600365 -0.00015907 3.46600365 -0.00015907 4.67808533 -0.00798035 C7.30543506 -0.02191879 9.93252362 -0.020916 12.55990601 -0.01861572 C14.38353066 -0.02250118 16.20715441 -0.02683553 18.03077698 -0.03160095 C21.85830616 -0.03907293 25.68574313 -0.03876546 29.51327515 -0.0335083 C34.41613889 -0.02772147 39.31862391 -0.04462082 44.22142506 -0.06785297 C47.99011947 -0.08259505 51.75872288 -0.08346121 55.52744102 -0.08034325 C57.3347314 -0.08085652 59.14202687 -0.08609543 60.94928932 -0.09615517 C63.47965578 -0.10850738 66.00928741 -0.10173473 68.53964233 -0.09014893 C69.28528442 -0.09779266 70.03092651 -0.1054364 70.79916382 -0.11331177 C75.26362529 -0.06818544 78.00639522 0.62616457 81.60287476 3.28216553 C82.18037476 3.69466553 82.75787476 4.10716553 83.35287476 4.53216553 C85.37585291 7.36433495 85.48467621 9.85440772 85.60287476 13.28216553 C83.99393967 17.00812046 82.09934663 19.25367648 78.60287476 21.28216553 C75.89320549 21.55706002 73.41933736 21.66202369 70.71322632 21.6227417 C69.922603 21.62317978 69.13197968 21.62361786 68.31739807 21.62406921 C65.70917907 21.62198242 63.1016062 21.59865691 60.49349976 21.57513428 C58.68318025 21.56953792 56.87285619 21.56526801 55.06253052 21.56227112 C50.30145692 21.55082543 45.54065857 21.52136061 40.7796936 21.48815918 C35.92001061 21.45745236 31.06028308 21.44376447 26.20053101 21.4286499 C16.6678581 21.39649066 7.13538933 21.34529761 -2.39712524 21.28216553 C-2.39712524 20.95216553 -2.39712524 20.62216553 -2.39712524 20.28216553 C-1.53570419 20.25932999 -0.67428314 20.23649445 0.21324158 20.21296692 C8.34920387 19.9965705 16.48504964 19.77628332 24.62078953 19.55167484 C28.80299634 19.43635004 32.98523232 19.32250611 37.16757202 19.21209717 C41.20714817 19.10540165 45.24659868 18.99474997 49.28599358 18.88140678 C50.82364042 18.83894701 52.36132666 18.79788945 53.89904976 18.75828743 C56.06029419 18.70238278 58.22134207 18.64139885 60.38241577 18.57928467 C61.61041397 18.54597549 62.83841217 18.51266632 64.10362244 18.47834778 C73.20979756 18.02760058 73.20979756 18.02760058 80.60287476 13.28216553 C80.62663402 11.28900883 80.62663402 11.28900883 80.22787476 9.15716553 C79.91849976 7.23904053 79.91849976 7.23904053 79.60287476 5.28216553 C70.43825859 2.7990779 61.19580814 2.93356694 51.78256226 2.86810303 C50.07048642 2.84936245 48.35841954 2.82978696 46.6463623 2.80941772 C42.17161371 2.7583954 37.69683526 2.71861097 33.22195435 2.68127441 C28.64312539 2.64104582 24.06441738 2.59004013 19.48568726 2.53997803 C10.52483509 2.44357345 1.56391415 2.35905679 -7.39712524 2.28216553 C-4.90071251 -0.21424721 -3.40720954 0.03521515 0 0 Z " fill="#EED4C4" transform="translate(144.39712524414063,130.71783447265625)"/>
<path d="M0 0 C9.41428963 -0.11598358 18.82833234 -0.20476032 28.24318123 -0.25906086 C32.61517749 -0.28512603 36.98668402 -0.32046689 41.35839844 -0.37719727 C45.57946441 -0.43162831 49.80006013 -0.46144371 54.02145004 -0.47438622 C55.62981441 -0.48360633 57.23815379 -0.5016116 58.84631729 -0.52865028 C61.10399707 -0.56509091 63.359748 -0.5699395 65.61767578 -0.56762695 C66.90118927 -0.57873001 68.18470276 -0.58983307 69.5071106 -0.60127258 C74.15230414 0.19835981 75.73441462 1.64120345 79 5 C80.26372224 9.08851312 80.2741007 11.20815353 78.875 15.25 C76.75208527 18.36360827 75.3843032 19.39009333 72 21 C68.6028595 21.3742218 68.6028595 21.3742218 64.67114258 21.37231445 C63.59221992 21.37779045 63.59221992 21.37779045 62.49150085 21.38337708 C60.12560057 21.3914515 57.7603917 21.37790297 55.39453125 21.36328125 C53.74737041 21.36276244 52.10020894 21.36328096 50.45304871 21.36479187 C47.00742303 21.3647023 43.56203206 21.35430038 40.11645508 21.33618164 C35.69433968 21.31344137 31.27256545 21.31296157 26.8504076 21.31969929 C23.45241752 21.32303522 20.05450564 21.3164172 16.65653038 21.30657005 C15.02540178 21.30271527 13.39426448 21.30157099 11.7631321 21.3031559 C9.48880947 21.30352554 7.21493005 21.29093714 4.94067383 21.2746582 C3.64559402 21.27005081 2.35051422 21.26544342 1.01618958 21.26069641 C-2 21 -2 21 -4 19 C19.43 19 42.86 19 67 19 C67.33 17.68 67.66 16.36 68 15 C69.1446875 14.7834375 69.1446875 14.7834375 70.3125 14.5625 C73.08172908 14.0367406 73.08172908 14.0367406 76 13 C76 10.03 76 7.06 76 4 C67.53621363 3.02175543 59.09560744 2.70027139 50.5859375 2.46484375 C49.12048453 2.42173887 47.65504069 2.37832224 46.18960571 2.33460999 C42.36590948 2.22137882 38.54210538 2.11233321 34.71826172 2.00421143 C30.80298468 1.89274555 26.88782667 1.77724898 22.97265625 1.66210938 C15.31521396 1.43750044 7.65765296 1.21732097 0 1 C0 0.67 0 0.34 0 0 Z " fill="#F0D4BE" transform="translate(142,276)"/>
<path d="M0 0 C3.99449676 1.08349822 5.11670028 3.02636904 7.16015625 6.5859375 C7.89506414 10.58710267 7.54829643 12.00372724 5.28515625 15.3984375 C2.56835051 18.19514929 1.76402523 18.52896873 -2.15234375 18.8984375 C-6.53417899 18.52709553 -7.99940941 17.92762496 -10.83984375 14.5859375 C-11.89485493 11.83118609 -12.19905164 9.51572688 -11.83984375 6.5859375 C-8.90702732 1.11134683 -6.22849005 -0.43672217 0 0 Z " fill="#F7CBB1" transform="translate(197.83984375,196.4140625)"/>
<path d="M0 0 C2.9838283 1.98921886 4.60276841 3.38502568 5.4765625 6.9375 C5.75890933 10.86063492 5.21925086 12.67112371 3 16 C-0.33228304 18.22152203 -2.14088392 18.7480039 -6.06640625 18.48828125 C-9.45966968 17.63139654 -10.98413808 15.74890261 -13 13 C-14.42001879 9.5387042 -14.12942622 8.33003686 -12.75 4.8125 C-9.59337248 -0.26065137 -5.65038927 -1.04433265 0 0 Z " fill="#FBC5A7" transform="translate(150,197)"/>
<path d="M0 0 C-0.33 1.32 -0.66 2.64 -1 4 C-1.66 4 -2.32 4 -3 4 C-3.12469099 9.57830016 -3.12469099 9.57830016 -2 15 C0.64 14.67 3.28 14.34 6 14 C6 13.34 6 12.68 6 12 C6.66 12 7.32 12 8 12 C8 9.03 8 6.06 8 3 C6.68 2.67 5.36 2.34 4 2 C4 1.34 4 0.68 4 0 C7.65316671 1.24976756 8.78065836 1.67098753 11 5 C11.5493667 9.86581934 11.73490373 11.8976444 9 16 C5.66771696 18.22152203 3.85911608 18.7480039 -0.06640625 18.48828125 C-3.45966968 17.63139654 -4.98413808 15.74890261 -7 13 C-8.42001879 9.5387042 -8.12942622 8.33003686 -6.75 4.8125 C-4.93652273 1.89798296 -3.6453579 0 0 0 Z " fill="#DDC2B0" transform="translate(144,197)"/>
<path d="M0 0 C-3.18762365 2.12508244 -5.26512223 2.5020163 -9 3 C-9.33 5.64 -9.66 8.28 -10 11 C-8.68 11.33 -7.36 11.66 -6 12 C-6.061875 12.9075 -6.12375 13.815 -6.1875 14.75 C-5.97415947 18.44790244 -5.32207689 19.24790887 -3 22 C-1.96958573 23.98450156 -0.96314063 25.98199105 0 28 C-0.66 28.66 -1.32 29.32 -2 30 C-2.36351562 29.29875 -2.72703125 28.5975 -3.1015625 27.875 C-5.59217343 23.17477014 -8.00744381 18.83072258 -11.4375 14.75 C-13.7360847 11.80588101 -13.9930679 11.20796299 -14.125 7.25 C-12.91247269 3.74714333 -11.95837677 2.19765131 -9 0 C-5.76906568 -1.35490794 -3.34601124 -0.83650281 0 0 Z " fill="#DFCFC1" transform="translate(265,157)"/>
<path d="M0 0 C0.66 0.33 1.32 0.66 2 1 C2 3.31 2 5.62 2 8 C5.26545761 9.88391785 8.28111761 10.49287967 12 11 C12 10.01 12 9.02 12 8 C12.99 8 13.98 8 15 8 C15 5.69 15 3.38 15 1 C15.99 1.33 16.98 1.66 18 2 C18.35671933 5.83473284 18.29771416 7.55342875 16.125 10.8125 C13.40819426 13.60921179 12.60386898 13.94303123 8.6875 14.3125 C4.30566476 13.94115803 2.84043434 13.34168746 0 10 C-0.97098218 6.58807649 -1.64059314 3.28118627 0 0 Z " fill="#DAC3B2" transform="translate(187,201)"/>
<path d="M0 0 C0.99 0 1.98 0 3 0 C3.66 1.32 4.32 2.64 5 4 C8.3 4 11.6 4 15 4 C15 4.33 15 4.66 15 5 C-3.44167367 6.50130237 -3.44167367 6.50130237 -11.93359375 4.375 C-14.18651232 3.79520364 -14.18651232 3.79520364 -17 5 C-16.67 4.01 -16.34 3.02 -16 2 C-13.12642332 0.56321166 -10.63366579 0.94386536 -7.4375 1 C-5.2919961 1.03759919 -3.14532508 1.04670095 -1 1 C-0.67 0.67 -0.34 0.34 0 0 Z " fill="#F2B48F" transform="translate(137,290)"/>
<path d="M0 0 C1.32 0.66 2.64 1.32 4 2 C3.75464515 6.17103241 3.31454995 8.55592948 0.875 12 C-2 14 -2 14 -5.8125 13.8125 C-6.864375 13.544375 -7.91625 13.27625 -9 13 C-8.67 11.68 -8.34 10.36 -8 9 C-7.236875 8.855625 -6.47375 8.71125 -5.6875 8.5625 C-2.91827092 8.0367406 -2.91827092 8.0367406 0 7 C0 4.69 0 2.38 0 0 Z " fill="#DDBEA9" transform="translate(218,282)"/>
<path d="M0 0 C2 1.625 2 1.625 3 4 C2.8125 7.6875 2.8125 7.6875 2 11 C1.01 11.495 1.01 11.495 0 12 C0 9.03 0 6.06 0 3 C-6.05388474 2.69196873 -6.05388474 2.69196873 -11.8125 4.125 C-12.534375 4.41375 -13.25625 4.7025 -14 5 C-16.13671875 4.0546875 -16.13671875 4.0546875 -18 3 C-17.37351563 2.79503906 -16.74703125 2.59007812 -16.1015625 2.37890625 C-15.28429687 2.10949219 -14.46703125 1.84007812 -13.625 1.5625 C-12.81289062 1.29566406 -12.00078125 1.02882812 -11.1640625 0.75390625 C-6.79066495 -0.76967809 -4.75853695 -1.08528036 0 0 Z " fill="#CAB5A4" transform="translate(191,238)"/>
<path d="M0 0 C0.33 1.32 0.66 2.64 1 4 C0.34 4 -0.32 4 -1 4 C-1 5.65 -1 7.3 -1 9 C-1.99 9.33 -2.98 9.66 -4 10 C-4.0825 10.78375 -4.165 11.5675 -4.25 12.375 C-5 15 -5 15 -7.0625 16.3125 C-7.701875 16.539375 -8.34125 16.76625 -9 17 C-9 18.98 -9 20.96 -9 23 C-9.66 23 -10.32 23 -11 23 C-11.73543 18.86320623 -11.55579509 16.90818731 -9.32421875 13.26171875 C-7.9242016 11.3702879 -6.49776359 9.49806737 -5.04296875 7.6484375 C-3.14291029 5.18526419 -1.54324077 2.69702014 0 0 Z " fill="#CEBEB0" transform="translate(262,244)"/>
<path d="M0 0 C0 0.66 0 1.32 0 2 C-8.04760906 5.76957723 -14.1253271 7.17401319 -23 7 C-23.33 6.34 -23.66 5.68 -24 5 C-23.21753906 4.95101562 -22.43507812 4.90203125 -21.62890625 4.8515625 C-20.61699219 4.77679688 -19.60507813 4.70203125 -18.5625 4.625 C-17.55316406 4.55539063 -16.54382813 4.48578125 -15.50390625 4.4140625 C-14.26447266 4.20910156 -14.26447266 4.20910156 -13 4 C-12.67 3.34 -12.34 2.68 -12 2 C-9.78515625 1.3671875 -9.78515625 1.3671875 -7.0625 0.875 C-5.71865234 0.62363281 -5.71865234 0.62363281 -4.34765625 0.3671875 C-2 0 -2 0 0 0 Z " fill="#C2AC9B" transform="translate(190,250)"/>
<path d="M0 0 C0.66 0.33 1.32 0.66 2 1 C1.29875 1.639375 0.5975 2.27875 -0.125 2.9375 C-3.21892707 5.98735404 -5.39251019 9.52667216 -7.66796875 13.20703125 C-8.10753906 13.79871094 -8.54710938 14.39039063 -9 15 C-9.66 15 -10.32 15 -11 15 C-11.33 16.32 -11.66 17.64 -12 19 C-12.66 19 -13.32 19 -14 19 C-13.61848881 13.96591331 -10.92870715 11.27280697 -7.5625 7.8125 C-6.80743164 7.01295898 -6.80743164 7.01295898 -6.03710938 6.19726562 C-4.0531432 4.10263998 -2.04001903 2.04001903 0 0 Z " fill="#E4C6B2" transform="translate(98,150)"/>
<path d="M0 0 C0.66 0.99 1.32 1.98 2 3 C1.32094629 5.56859447 0.56855513 7.90650729 -0.375 10.375 C-2.77487083 16.50751931 -2.77487083 16.50751931 -3 23 C-2.34 23.99 -1.68 24.98 -1 26 C-1.99 26 -2.98 26 -4 26 C-6.39388302 22.40917547 -6.39398171 21.24515288 -6 17 C-5.16952113 13.97529358 -4.10409617 11.05930964 -3 8.125 C-2.71382813 7.34125 -2.42765625 6.5575 -2.1328125 5.75 C-1.4304388 3.83017854 -0.71638928 1.91463564 0 0 Z " fill="#C8AF9F" transform="translate(91,280)"/>
<path d="M0 0 C1.12775345 0.03541649 1.12775345 0.03541649 2.27828979 0.07154846 C4.68311316 0.14821245 7.08761668 0.23222469 9.4921875 0.31640625 C11.12107802 0.36962422 12.74998422 0.42236464 14.37890625 0.47460938 C18.3752031 0.60383123 22.37122842 0.73964452 26.3671875 0.87890625 C26.3671875 1.20890625 26.3671875 1.53890625 26.3671875 1.87890625 C13.0021875 2.37390625 13.0021875 2.37390625 -0.6328125 2.87890625 C-0.6328125 3.20890625 -0.6328125 3.53890625 -0.6328125 3.87890625 C-3.2728125 3.87890625 -5.9128125 3.87890625 -8.6328125 3.87890625 C-8.9628125 2.88890625 -9.2928125 1.89890625 -9.6328125 0.87890625 C-6.55406373 -0.66046814 -3.36544553 -0.12406161 0 0 Z " fill="#E6BCA9" transform="translate(148.6328125,149.12109375)"/>
<path d="M0 0 C2 2 2 2 3 5 C3.66 5 4.32 5 5 5 C5 5.99 5 6.98 5 8 C6.98 8 8.96 8 11 8 C11 8.99 11 9.98 11 11 C3.78846154 11.48076923 3.78846154 11.48076923 0.4375 9.4375 C-1.58093918 6.01492921 -0.87061285 3.77265569 0 0 Z " fill="#E7CEBE" transform="translate(253,261)"/>
<path d="M0 0 C3.75 0.6875 3.75 0.6875 5.5078125 2.55859375 C7.95185255 6.15381209 9.90193896 9.38802777 10.75 13.6875 C9.76 14.0175 8.77 14.3475 7.75 14.6875 C7.75 14.0275 7.75 13.3675 7.75 12.6875 C6.76 12.3575 5.77 12.0275 4.75 11.6875 C5.018125 11.130625 5.28625 10.57375 5.5625 10 C6.02830965 7.4258025 6.02830965 7.4258025 3.6875 4.9375 C0.33006317 2.36584626 -1.13257146 2.20872924 -5.25 2.6875 C-3.25 0.6875 -3.25 0.6875 0 0 Z " fill="#DCC5B5" transform="translate(211.25,170.3125)"/>
<path d="M0 0 C-3.18762365 2.12508244 -5.26512223 2.5020163 -9 3 C-9.33 3.99 -9.66 4.98 -10 6 C-10.66 6 -11.32 6 -12 6 C-12 7.98 -12 9.96 -12 12 C-12.66 11.67 -13.32 11.34 -14 11 C-13.51327434 4.67256637 -13.51327434 4.67256637 -11.1875 1.625 C-7.2430879 -1.3051347 -4.69615321 -1.1740383 0 0 Z " fill="#CBBEB3" transform="translate(265,157)"/>
<path d="M0 0 C2.68006581 2.68006581 2.66988365 4.72061164 3.25 8.4375 C3.53617187 10.16806641 3.53617187 10.16806641 3.828125 11.93359375 C4 15 4 15 2 18 C-0.03358813 11.64647324 -1.60671734 6.57293456 0 0 Z " fill="#CCAB94" transform="translate(72,224)"/>
<path d="M0 0 C2.375 1.5 2.375 1.5 4 3 C3.38511719 3.04898438 2.77023438 3.09796875 2.13671875 3.1484375 C1.32847656 3.22320312 0.52023438 3.29796875 -0.3125 3.375 C-1.51326172 3.47941406 -1.51326172 3.47941406 -2.73828125 3.5859375 C-5.27224441 3.89564426 -5.27224441 3.89564426 -8 6 C-9.19232613 8.05003955 -9.19232613 8.05003955 -10 10 C-10.32152515 6.46322336 -10.4131192 4.6037896 -8.375 1.625 C-5.30522452 -0.4753727 -3.65443439 -0.53293835 0 0 Z " fill="#CAB2A1" transform="translate(158,237)"/>
<path d="M0 0 C0.99 0.33 1.98 0.66 3 1 C3 1.66 3 2.32 3 3 C3.66 3 4.32 3 5 3 C5 3.99 5 4.98 5 6 C5.66 6 6.32 6 7 6 C7.45375 6.928125 7.9075 7.85625 8.375 8.8125 C9.9421633 12.03921389 9.9421633 12.03921389 12 15 C11.01 15 10.02 15 9 15 C7.24609375 12.98828125 7.24609375 12.98828125 5.4375 10.3125 C4.53837891 9.00732422 4.53837891 9.00732422 3.62109375 7.67578125 C2.10081322 5.16640255 0.99700907 2.75293548 0 0 Z " fill="#D0B5A1" transform="translate(79,252)"/>
<path d="M0 0 C0 0.66 0 1.32 0 2 C-1.175625 1.855625 -2.35125 1.71125 -3.5625 1.5625 C-4.28953125 1.47355469 -5.0165625 1.38460938 -5.765625 1.29296875 C-7.78704145 1.02792289 -9.80063603 0.70481377 -11.8125 0.375 C-15.01597251 -0.23073535 -15.01597251 -0.23073535 -18 1 C-17.67 0.01 -17.34 -0.98 -17 -2 C-12.19847791 -4.40076104 -5.00665771 -1.3175415 0 0 Z " fill="#D4B4A1" transform="translate(138,294)"/>
<path d="M0 0 C0.66 0 1.32 0 2 0 C0.50829734 4.9723422 -1.60457417 9.41845739 -4 14 C-4.33 14 -4.66 14 -5 14 C-5 10.7 -5 7.4 -5 4 C-4.01 4 -3.02 4 -2 4 C-1.34 2.68 -0.68 1.36 0 0 Z " fill="#DFCDC0" transform="translate(280,244)"/>
<path d="M0 0 C4.26086957 6.39130435 4.26086957 6.39130435 3.625 10.3125 C3.41875 10.869375 3.2125 11.42625 3 12 C2.01 10.02 1.02 8.04 0 6 C-1.98 6.99 -1.98 6.99 -4 8 C-4.33 7.01 -4.66 6.02 -5 5 C-4.34 4.01 -3.68 3.02 -3 2 C-2.01 2 -1.02 2 0 2 C0 1.34 0 0.68 0 0 Z " fill="#E4B79E" transform="translate(93,232)"/>
<path d="M0 0 C0 0.33 0 0.66 0 1 C-2.62181825 1.72264239 -5.24623992 2.42849092 -7.875 3.125 C-8.62136719 3.33253906 -9.36773437 3.54007813 -10.13671875 3.75390625 C-12.06990779 4.25897366 -14.03488717 4.63855219 -16 5 C-16.66 4.34 -17.32 3.68 -18 3 C-15.94237091 2.29805625 -13.87863969 1.61398303 -11.8125 0.9375 C-10.66394531 0.55464844 -9.51539063 0.17179688 -8.33203125 -0.22265625 C-5.02545492 -0.99406151 -3.20917686 -0.96093996 0 0 Z " fill="#C6AD9A" transform="translate(138,133)"/>
<path d="M0 0 C1.65 0 3.3 0 5 0 C5 0.99 5 1.98 5 3 C4.34 3 3.68 3 3 3 C3.33 4.32 3.66 5.64 4 7 C2.35 7.66 0.7 8.32 -1 9 C-1 8.34 -1 7.68 -1 7 C-0.34 7 0.32 7 1 7 C0.34 6.34 -0.32 5.68 -1 5 C-0.625 2.375 -0.625 2.375 0 0 Z " fill="#E4B091" transform="translate(115,289)"/>
<path d="M0 0 C0.99 0.33 1.98 0.66 3 1 C3.6875 3.0625 3.6875 3.0625 4 5 C0.72814447 6.07310858 -1.42947592 5.89263102 -4.75 5.0625 C-5.54921875 4.86785156 -6.3484375 4.67320312 -7.171875 4.47265625 C-8.07679688 4.23869141 -8.07679688 4.23869141 -9 4 C-9 3.67 -9 3.34 -9 3 C-7.88625 2.87625 -6.7725 2.7525 -5.625 2.625 C-1.96896323 2.3534187 -1.96896323 2.3534187 0 0 Z " fill="#F2CAB4" transform="translate(221,146)"/>
<path d="M0 0 C0.33 0 0.66 0 1 0 C1.33 5.61 1.66 11.22 2 17 C1.01 17 0.02 17 -1 17 C-0.67 11.39 -0.34 5.78 0 0 Z " fill="#C0B3AB" transform="translate(270,209)"/>
<path d="M0 0 C0.66 0.33 1.32 0.66 2 1 C0.49760034 4.61941735 -0.82145293 7.7321794 -3 11 C-3.66 11 -4.32 11 -5 11 C-5.33 11.66 -5.66 12.32 -6 13 C-5.67 11.02 -5.34 9.04 -5 7 C-4.34 7 -3.68 7 -3 7 C-2.67 5.68 -2.34 4.36 -2 3 C-1.34 3 -0.68 3 0 3 C0 2.01 0 1.02 0 0 Z " fill="#EBC7B0" transform="translate(101,173)"/>
<path d="M0 0 C0.53625 0.28875 1.0725 0.5775 1.625 0.875 C4.35280484 2.16711808 7.12612718 3.08558592 10 4 C9.67 4.99 9.34 5.98 9 7 C2.29787234 5.06382979 2.29787234 5.06382979 0 2 C0 1.34 0 0.68 0 0 Z " fill="#CCB2A2" transform="translate(149,247)"/>
<path d="M0 0 C0.99 0 1.98 0 3 0 C3 1.65 3 3.3 3 5 C2.34 5 1.68 5 1 5 C1.33 6.98 1.66 8.96 2 11 C0.4375 10 0.4375 10 -1 8 C-0.96726452 5.23385218 -0.49404328 2.73969453 0 0 Z " fill="#D4B198" transform="translate(72,192)"/>
<path d="M0 0 C0.99 0.33 1.98 0.66 3 1 C3.33 1.99 3.66 2.98 4 4 C3.01 5.485 3.01 5.485 2 7 C0.68 7 -0.64 7 -2 7 C-1.125 1.125 -1.125 1.125 0 0 Z " fill="#EABCA1" transform="translate(75,185)"/>
<path d="M0 0 C0.99 0 1.98 0 3 0 C3.84888195 5.37625234 4.0024305 9.65370398 3 15 C2.67 15 2.34 15 2 15 C1.34 10.05 0.68 5.1 0 0 Z " fill="#BEA99A" transform="translate(211,196)"/>
<path d="M0 0 C2.64 0.33 5.28 0.66 8 1 C8 1.99 8 2.98 8 4 C5.69 4 3.38 4 1 4 C0.67 2.68 0.34 1.36 0 0 Z " fill="#E9C3A9" transform="translate(89,304)"/>
<path d="M0 0 C0.66 0.33 1.32 0.66 2 1 C2 4.33333333 2 7.66666667 2 11 C1.34 10.67 0.68 10.34 0 10 C-1.29411765 2.58823529 -1.29411765 2.58823529 0 0 Z " fill="#C9B7A9" transform="translate(187,201)"/>
<path d="M0 0 C0.99 0.33 1.98 0.66 3 1 C3.94921875 3.28515625 3.94921875 3.28515625 4.6875 6.0625 C4.93886719 6.98160156 5.19023437 7.90070313 5.44921875 8.84765625 C5.63097656 9.55792969 5.81273437 10.26820313 6 11 C4.078125 10.2890625 4.078125 10.2890625 2 9 C1.171875 6.8359375 1.171875 6.8359375 0.75 4.375 C0.60046875 3.55773437 0.4509375 2.74046875 0.296875 1.8984375 C0.19890625 1.27195313 0.1009375 0.64546875 0 0 Z " fill="#F6DDCC" transform="translate(274,173)"/>
<path d="M0 0 C2.31 0 4.62 0 7 0 C4.2180632 3.27286682 0.72045933 4.96427697 -3 7 C-2.690625 6.401875 -2.38125 5.80375 -2.0625 5.1875 C-0.89790296 2.91043228 -0.89790296 2.91043228 0 0 Z " fill="#D5B8A2" transform="translate(115,159)"/>
<path d="M0 0 C0.33 1.32 0.66 2.64 1 4 C0.34 4 -0.32 4 -1 4 C-1 5.65 -1 7.3 -1 9 C-2.65 9.66 -4.3 10.32 -6 11 C-4.02 7.37 -2.04 3.74 0 0 Z " fill="#D8C7B8" transform="translate(262,244)"/>
<path d="M0 0 C-0.33 0.99 -0.66 1.98 -1 3 C-4.3 2.34 -7.6 1.68 -11 1 C-11 0.67 -11 0.34 -11 0 C-3.375 -1.125 -3.375 -1.125 0 0 Z " fill="#ECC8B3" transform="translate(225,133)"/>
<path d="M0 0 C0.99 0 1.98 0 3 0 C3.33 2.64 3.66 5.28 4 8 C3.01 8.495 3.01 8.495 2 9 C2 8.01 2 7.02 2 6 C1.34 6 0.68 6 0 6 C0 4.02 0 2.04 0 0 Z " fill="#E5D3C5" transform="translate(283,194)"/>
<path d="M0 0 C0 0.66 0 1.32 0 2 C-0.66 2 -1.32 2 -2 2 C-2.33 2.99 -2.66 3.98 -3 5 C-5.31 5 -7.62 5 -10 5 C-3.63636364 0 -3.63636364 0 0 0 Z " fill="#D8BBA8" transform="translate(120,137)"/>
<path d="M0 0 C2.9719385 1.12451727 5.33440687 2.22293791 8 4 C4.52176885 5.15941038 2.54104422 4.70820884 -1 4 C-0.67 2.68 -0.34 1.36 0 0 Z " fill="#E6BAA1" transform="translate(210,291)"/>
<path d="M0 0 C0 0.66 0 1.32 0 2 C-1.98 2.66 -3.96 3.32 -6 4 C-6 2.68 -6 1.36 -6 0 C-3 -1 -3 -1 0 0 Z " fill="#D4B39F" transform="translate(129,155)"/>
<path d="M0 0 C3.26954202 0.56371414 4.82575883 1.49962266 7 4 C6.34 5.32 5.68 6.64 5 8 C4.67 6.35 4.34 4.7 4 3 C2.68 2.67 1.36 2.34 0 2 C0 1.34 0 0.68 0 0 Z " fill="#EACFBD" transform="translate(214,277)"/>
<path d="M0 0 C0.66 0 1.32 0 2 0 C2.125 3.375 2.125 3.375 2 7 C1.34 7.66 0.68 8.32 0 9 C-1.10844919 5.67465243 -0.84454356 3.37817425 0 0 Z " fill="#C5B3A4" transform="translate(212,224)"/>
<path d="M0 0 C1.32 0 2.64 0 4 0 C4.33 0.99 4.66 1.98 5 3 C3.02 3.66 1.04 4.32 -1 5 C-0.67 3.35 -0.34 1.7 0 0 Z " fill="#F8DECC" transform="translate(244,196)"/>
<path d="M0 0 C0.99 0.33 1.98 0.66 3 1 C4.1875 4.5625 4.1875 4.5625 5 8 C4.34 8.66 3.68 9.32 3 10 C2.01 6.7 1.02 3.4 0 0 Z " fill="#D0C3B6" transform="translate(264,187)"/>
<path d="M0 0 C0.66 0 1.32 0 2 0 C2.66 2.97 3.32 5.94 4 9 C3.34 9 2.68 9 2 9 C1.34 6.03 0.68 3.06 0 0 Z " fill="#D4C4B6" transform="translate(222,187)"/>
<path d="M0 0 C0 0.66 0 1.32 0 2 C1.32 2.66 2.64 3.32 4 4 C1.36 4 -1.28 4 -4 4 C-4.33 3.01 -4.66 2.02 -5 1 C-3 0 -3 0 0 0 Z " fill="#BB9A7F" transform="translate(144,149)"/>
<path d="M0 0 C0.33 0 0.66 0 1 0 C2.25 6.5 2.25 6.5 0 11 C-0.66 8.03 -1.32 5.06 -2 2 C-1.34 2 -0.68 2 0 2 C0 1.34 0 0.68 0 0 Z " fill="#C7B6A5" transform="translate(241,202)"/>
<path d="M0 0 C0.33 0.99 0.66 1.98 1 3 C0.01 3.495 0.01 3.495 -1 4 C-1.65213292 6.02463255 -1.65213292 6.02463255 -2 8 C-2.66 8 -3.32 8 -4 8 C-3.6875 5.125 -3.6875 5.125 -3 2 C-2.01 1.34 -1.02 0.68 0 0 Z " fill="#DCCFC3" transform="translate(243,196)"/>
<path d="M0 0 C1.98 0.99 1.98 0.99 4 2 C3.67 3.32 3.34 4.64 3 6 C2.01 5.67 1.02 5.34 0 5 C0 3.35 0 1.7 0 0 Z " fill="#E3D1C6" transform="translate(280,185)"/>
<path d="M0 0 C1.7325 0.1546875 1.7325 0.1546875 3.5 0.3125 C4.16 1.3025 4.82 2.2925 5.5 3.3125 C1.87 2.9825 -1.76 2.6525 -5.5 2.3125 C-3.5 0.3125 -3.5 0.3125 0 0 Z " fill="#CABCAE" transform="translate(211.5,170.6875)"/>
<path d="M0 0 C1.98 0.495 1.98 0.495 4 1 C3.67 1.99 3.34 2.98 3 4 C0.9375 4.6875 0.9375 4.6875 -1 5 C-0.67 3.35 -0.34 1.7 0 0 Z " fill="#D1AB93" transform="translate(102,300)"/>
<path d="M0 0 C0.33 0.66 0.66 1.32 1 2 C1.99 2.33 2.98 2.66 4 3 C2.02 3.99 2.02 3.99 0 5 C0 5.66 0 6.32 0 7 C-0.66 7 -1.32 7 -2 7 C-1.34 4.69 -0.68 2.38 0 0 Z " fill="#D9C5B7" transform="translate(265,237)"/>
<path d="M0 0 C0.66 0.33 1.32 0.66 2 1 C1.34 3.31 0.68 5.62 0 8 C-1.125 6.25 -1.125 6.25 -2 4 C-1.125 1.75 -1.125 1.75 0 0 Z " fill="#F2D1BF" transform="translate(190,198)"/>
</svg>
